<?xml version="1.0" encoding="UTF-8"?>
<svg width="222px" height="48px" viewBox="0 0 222 48" version="1.1" xmlns="http://www.w3.org/2000/svg" xmlns:xlink="http://www.w3.org/1999/xlink">
    <title>Mi Pasteleria</title>
    <defs>
        <polygon id="path-1" points="0 0 48 0 48 48 0 48"></polygon>
    </defs>
    <g id="Page-1" stroke="none" stroke-width="1" fill="none" fill-rule="evenodd">
        <g id="BED-|-22" transform="translate(-113.000000, -51.000000)">
            <g id="Mi-Pasteleria" transform="translate(113.000000, 51.000000)">
                <g id="Group-3" transform="translate(0.000000, 0.000000)">
                    <mask id="mask-2" fill="white">
                        <use xlink:href="#path-1"></use>
                    </mask>
                    <g id="Clip-2"></g>
                    <path d="M23.9996492,0.775234068 C11.1936856,0.775234068 0.775268581,11.1940095 0.775268581,24.0003333 C0.775268581,36.8063062 11.1936856,47.2247309 23.9996492,47.2247309 C36.8059636,47.2247309 47.2247314,36.8063062 47.2247314,24.0003333 C47.2247314,11.1940095 36.8059636,0.775234068 23.9996492,0.775234068 M23.9996492,48 C10.7660601,48 0,37.2339321 0,24.0003333 C0,10.7663837 10.7660601,-3.50800519e-05 23.9996492,-3.50800519e-05 C37.2335891,-3.50800519e-05 48,10.7663837 48,24.0003333 C48,37.2339321 37.2335891,48 23.9996492,48" id="Fill-1" fill="#FFFFFF" mask="url(#mask-2)"></path>
                </g>
                <path d="M37.1584041,25 C36.7129577,25 36.4639806,25.3052448 36.0613054,25.8461538 C35.5240574,26.565035 34.7892968,27.548951 32.9268369,27.548951 C32.8437286,27.548951 32.7560998,27.5451049 32.6646459,27.5412587 C31.2479802,27.4762238 30.3518714,26.9062937 29.5642553,26.4013986 C28.8180195,25.9185315 28.1701923,25.5045455 27.142988,25.5045455 C27.0504909,25.5045455 26.9597325,25.5087413 26.8627149,25.5157343 C25.7346679,25.5916084 25.1362187,26.070979 24.4404043,26.6265734 C23.6938208,27.2251748 22.8495242,27.9006993 21.2885491,27.9517483 C21.166147,27.9555944 21.0527859,27.9590909 20.9394248,27.9590909 C18.8624135,27.9590909 17.8922374,27.2982517 17.1094896,26.7681818 C16.5492912,26.3870629 16.1041925,26.0895105 15.3475247,26.0895105 L15.2254703,26.0895105 C14.1575812,26.1325175 13.8480985,26.4524476 13.3803971,26.9395105 C12.9742445,27.3597902 12.4669016,27.8825175 11.3781484,28.241958 C11.0238081,28.3618881 10.656254,28.4202797 10.2939158,28.4202797 C9.84812166,28.4202797 9.40615256,28.3328671 9,28.1587413 C9,28.1587413 9.56506671,32.6821678 10.5119446,35.0818182 C10.8548097,35.9517483 11.6872834,36.6517483 12.6901464,36.7157343 C18.6263026,37.0947552 29.6630116,37.0947552 35.6422867,36.7157343 C36.6441065,36.6524476 37.3917332,35.8947552 37.7092138,34.951049 C38.5875882,32.3426573 39,25.7223776 39,25.7223776 L38.807008,25.613986 C38.0986751,25.206993 37.5482132,25 37.1584041,25" id="Fill-4" fill="#FFFFFF"></path>
                <path d="M37.0726373,22.5962704 L32.5595214,22.7430173 L33.3061856,19.3993812 C33.2228354,19.4062385 33.1440189,19.4100101 33.0610174,19.4100101 C32.7886472,19.4100101 32.5124407,19.3674946 32.2404192,19.2817779 C31.4215647,19.0153705 31.048407,18.6378742 30.7456958,18.3316943 C30.4126439,17.9970564 30.2152539,17.797508 29.5003255,17.7687072 L29.4173241,17.7659642 C28.9133868,17.7659642 28.623928,17.9572838 28.2204294,18.2247199 C27.6418606,18.6090734 26.9223986,19.086001 25.3788508,19.086001 C25.2955006,19.086001 25.2128479,19.086001 25.1249641,19.0829152 C23.9493429,19.0431427 23.3233446,18.5521576 22.7698855,18.1211741 C22.2837342,17.7409349 21.8621009,17.4128115 21.0913732,17.3630958 C21.0254603,17.3558956 20.9595474,17.3558956 20.8974707,17.3558956 C20.1971897,17.3558956 19.7441692,17.6373892 19.2234921,17.964484 C18.6396921,18.3316943 17.9781218,18.7445058 16.9168892,18.7942215 C16.8464426,18.7976501 16.7808784,18.7976501 16.7201967,18.7976501 C15.3032436,18.7976501 14.7553644,18.07523 14.3518658,17.5482439 C14.0536883,17.1566901 13.9089589,17 13.6630933,17 C13.5406837,17 13.3792145,17.0356581 13.1898457,17.1066315 L13.0580198,17.1566901 L13.9309299,23.2586888 C13.9354636,23.2895468 13.9466235,23.3183476 13.9535984,23.3488628 L9.83072867,23.4829237 C8.63906518,23.5220105 7.83206802,24.2698027 8.02980673,25.1557703 L8.58152217,27.6374395 C9.19566305,27.9789347 10.0263749,28.1373392 10.9080036,27.8527598 C13.0998693,27.1406257 12.6070919,25.8055027 14.9084636,25.7167002 C17.2108817,25.627212 17.1522924,27.6655546 20.9919807,27.541094 C23.7324232,27.4522915 23.9333006,25.3313181 26.5642369,25.1530274 C29.1951732,24.9750796 29.7639772,27.0202794 32.4465278,27.1406257 C36.393281,27.3185735 34.8040476,23.0461115 38.8317098,25.3128033 L38.9851578,24.2550595 C39.124656,23.3008614 38.2649983,22.5575264 37.0726373,22.5962704" id="Fill-6" fill="#FFFFFF"></path>
                <path d="M17.3032725,13 C17.4091028,12.9913516 17.5178326,12.9722655 17.6233004,12.9445311 C18.6439105,12.6659935 18.4112288,12.1458978 19.4869285,12.1116025 C20.5575543,12.0740267 20.534721,12.8705725 22.321151,12.8204715 C23.6016251,12.7864744 23.6925957,11.9598085 24.9179801,11.8918143 C26.1440894,11.8208379 26.4130143,12.6197694 27.6615944,12.6659935 C29.2385384,12.7244447 28.9185105,11.5145659 29.971377,11.7182502 L29.9945727,11.5852441 C30.0489375,11.247659 29.6886796,10.9879093 29.192147,11.0004345 L17.7689983,11.3129692 C17.2681165,11.324898 16.9303294,11.5885245 17.0122392,11.9013573 L17.3032725,13 Z" id="Fill-8" fill="#FFFFFF"></path>
                <path d="M13.1025876,16.5719834 C15.1092056,15.7697585 14.4083879,18.4661867 16.9844421,18.3412741 C18.9168312,18.2456664 19.3245671,16.6749173 21.2168796,16.811552 C23.1140711,16.9485529 23.2579984,18.5804763 25.2301156,18.6486105 C27.9905222,18.7442181 27.9507941,17.1767658 29.6071774,17.2452663 C31.2628638,17.3137668 30.9080988,18.3412741 32.4857229,18.8885453 C32.8317756,19.0057654 33.1645857,19.02518 33.4716073,18.9716983 L33.9793604,16.5338869 C34.1149238,15.8917406 33.5684881,15.3470335 32.7575468,15.320659 L28.914375,15.1869549 C28.9345875,15.130909 28.9509667,15.0730316 28.9586335,15.0129563 L29.4932205,11.0307703 L29.4273555,11.0153851 C29.3792636,11.0036631 29.3482478,11 29.3308231,11 C29.2646096,11 29.1949112,11.0868161 29.045408,11.2967133 C28.7871753,11.6546009 28.40244,12.198209 27.4294498,12.198209 C27.3858883,12.198209 27.3461602,12.1945459 27.3022501,12.1945459 C26.5878412,12.1604788 26.1372408,11.8560729 25.7730664,11.6161381 C25.4580295,11.4033104 25.2081606,11.2395685 24.8303951,11.2395685 C24.7958944,11.2395685 24.7610451,11.2395685 24.7261959,11.2439643 C24.301384,11.2740019 24.0734701,11.4641183 23.78457,11.7033205 C23.4339869,11.9963707 23.0042961,12.3575551 22.2065974,12.3846622 C22.1501417,12.3846622 22.092989,12.3883254 22.0410637,12.3883254 C21.023815,12.3883254 20.5289561,12.038863 20.1693121,11.783543 C19.9110794,11.6014856 19.774819,11.5135705 19.5336624,11.5135705 L19.486616,11.5135705 C19.1130323,11.5285893 19.0304397,11.6161381 18.8286627,11.8326289 C18.6404769,12.038863 18.3815472,12.3198249 17.8344145,12.5103075 C17.7068664,12.5517009 17.5754848,12.5821048 17.4451487,12.5978563 L17.9055069,14.8034254 L14.3020977,14.6781464 C13.4970808,14.6514056 12.9133564,15.1876875 13.0105857,15.8800186 L13.1025876,16.5719834 Z" id="Fill-10" fill="#FFFFFF"></path>
                <path d="M23.7571571,7.69562324 C23.9979927,7.69562324 24.1890831,7.8943931 24.1890831,8.13982757 C24.1890831,8.3845496 23.9979927,8.58331946 23.7571571,8.58331946 C23.5207813,8.58331946 23.3303771,8.3845496 23.3303771,8.13982757 C23.3303771,7.8943931 23.5207813,7.69562324 23.7571571,7.69562324 M24.3232237,10 C25.052249,10 25.6464474,9.38267353 25.6464474,8.62606567 C25.6464474,7.86803294 25.057052,7.2571184 24.3321436,7.25213134 C24.3043548,6.71602266 24.4769194,6.00501076 24.853611,5.57541138 C25.1356152,5.2523213 25.4896641,5.12087671 25.9058089,5.18606468 C25.9476635,5.19283283 25.9922627,5.16041696 25.9991241,5.11410856 C26.0056425,5.06780017 25.9751092,5.02362909 25.9298238,5.01721716 C25.464963,4.94561727 25.0498475,5.09807874 24.7318209,5.46070906 C24.3143039,5.93768548 24.1365933,6.69358091 24.1684988,7.26744873 C23.5128907,7.34795409 23,7.92039704 23,8.62606567 C23,9.38267353 23.5941985,10 24.3232237,10" id="Fill-12" fill="#FFFFFF"></path>
                <path d="M60.7068238,12.5113192 C60.7395154,12.2237455 61.0340956,12 61.2959842,12 L61.819406,12 C61.9828642,12 62.2774444,12.1280033 62.3755194,12.3194878 L69.9674448,26.1195572 L70.0328281,26.1195572 L77.6243982,12.3194878 C77.7224732,12.1280033 78.0170534,12 78.1805116,12 L78.7042887,12 C78.965822,12 79.2604022,12.2237455 79.2930938,12.5113192 L82.9908039,33.9777084 C83.0565425,34.3932854 82.761607,34.6805122 82.3689518,34.6805122 L78.5077835,34.6805122 C78.2135586,34.6805122 77.9189784,34.4248526 77.8862868,34.1695398 L76.4137411,24.2987195 L76.3483578,24.2987195 L70.8508301,34.6485981 C70.7527552,34.8404295 70.4581749,35 70.2943613,35 L69.7055563,35 C69.509051,35 69.2475178,34.8404295 69.1490875,34.6485981 L63.6192235,24.2987195 L63.5538402,24.2987195 L62.1139862,34.1695398 C62.0812945,34.4248526 61.819406,34.6805122 61.4921341,34.6805122 L57.6309658,34.6805122 C57.2383106,34.6805122 56.9437304,34.3932854 57.0091137,33.9777084 L60.7068238,12.5113192 Z" id="Fill-14" fill="#FFFFFF"></path>
                <path d="M85.1888403,22.6735496 C85.1888403,22.3176512 85.4719301,22.0587202 85.7864363,22.0587202 L89.2453217,22.0587202 C89.5598279,22.0587202 89.8429176,22.3176512 89.8429176,22.6735496 L89.8429176,34.3851706 C89.8429176,34.7087465 89.5598279,35 89.2453217,35 L85.7864363,35 C85.4719301,35 85.1888403,34.7087465 85.1888403,34.3851706 L85.1888403,22.6735496 Z M85,15.588256 C85,14.1646625 86.100601,13 87.4842918,13 C88.8679825,13 90,14.1646625 90,15.588256 C90,17.0118494 88.8679825,18.1441895 87.4842918,18.1441895 C86.100601,18.1441895 85,17.0118494 85,15.588256 L85,15.588256 Z" id="Fill-16" fill="#FFFFFF"></path>
                <path d="M110.297599,22.8570919 C111.719183,22.8570919 112.909221,21.7399358 112.909221,20.2616931 C112.909221,18.8815718 111.719183,17.8300678 110.297599,17.8300678 L107.157191,17.8300678 L107.157191,22.8570919 L110.297599,22.8570919 Z M102,13.6244086 C102,13.2957913 102.264573,13 102.628225,13 L110.595199,13 C114.661072,13 118,16.2858162 118,20.2616931 C118,24.3356913 114.661072,27.6543336 110.628225,27.6543336 L107.157191,27.6543336 L107.157191,35.3755914 C107.157191,35.7042087 106.859592,36 106.528966,36 L102.628225,36 C102.264573,36 102,35.7042087 102,35.3755914 L102,13.6244086 Z" id="Fill-18" fill="#FFFFFF"></path>
                <path d="M123.375821,32.7334781 C124.121572,32.7334781 124.743144,32.066708 124.743144,31.2667287 C124.711761,30.5000517 124.121572,29.8669459 123.375821,29.8669459 C122.630069,29.8669459 122.039542,30.5000517 122.039542,31.2667287 C122.039542,32.066708 122.630069,32.7334781 123.375821,32.7334781 M122.567642,27.1332609 C123.966348,27.1332609 124.960458,27.6668218 124.960458,27.6668218 C124.960458,26.3665839 124.774189,25.6998138 123.282686,25.6998138 C122.443463,25.6998138 120.983005,25.933292 120.175164,26.2000724 C119.709154,26.3665839 119.491503,25.9998966 119.429413,25.5 L119.149672,23.4001448 C119.056537,22.8332816 119.336278,22.5998035 119.615682,22.4998966 C119.895423,22.3999897 122.070587,22 123.748696,22 C127.601969,22 129,23.7331679 129,27.6668218 L129,35.0335092 C129,35.3668942 128.720596,35.6669769 128.40981,35.6669769 L127.042487,35.6669769 C126.855881,35.6669769 126.638567,35.6000103 126.483005,35.233323 L126.04804,34.3334368 C125.333333,35.0335092 124.245751,36 122.288239,36 C119.833333,36 118,34.2335298 118,31.6001138 C118,29.0333023 119.740199,27.1332609 122.567642,27.1332609" id="Fill-20" fill="#FFFFFF"></path>
                <path d="M132.126804,34.1999121 L133.234364,31.8999405 C133.32921,31.6997699 133.645704,31.4999612 133.898969,31.633167 C133.898969,31.633167 135.386254,32.5000905 136.746735,32.5000905 C137.06323,32.5000905 137.34811,32.2999198 137.34811,31.8999405 C137.34811,31.5665641 137.158419,31.0999819 135.54433,30.4998319 C133.075945,29.599969 132,28.099956 132,26.0330946 C132,23.8000879 133.519244,22 136.93677,22 C138.930241,22 140.449485,22.5668485 141.145704,23.0334307 C141.430241,23.2336014 141.65189,23.5333144 141.462199,23.8666908 L140.291065,26.1333609 C140.19622,26.3335316 139.879725,26.4334359 139.62646,26.3335316 C139.62646,26.3335316 138.17079,25.5665124 136.93677,25.5665124 C136.52543,25.5665124 136.24055,25.6667787 136.24055,26.0330946 C136.24055,26.366471 136.58866,26.6998475 137.664605,27.0998268 C140.227835,28.0333532 142,29.1000853 142,31.7667348 C142,34.1000078 140.227835,36 136.65189,36 C134.56323,36 132.9811,35.4331515 132.348454,34.8999664 C132.126804,34.6997957 131.968729,34.4999871 132.126804,34.1999121" id="Fill-22" fill="#FFFFFF"></path>
                <path d="M145.474421,26.0907939 L144.602941,26.0907939 C144.268176,26.0907939 144,25.8073922 144,25.4925394 L144,22.690999 C144,22.3446951 144.268176,22.0927445 144.602941,22.0927445 L145.474421,22.0927445 L145.474421,18.5982545 C145.474421,18.2837436 145.776073,18 146.111202,18 L149.69646,18 C150.031225,18 150.299401,18.2837436 150.299401,18.5982545 L150.299401,22.0927445 L152.779208,22.0927445 C153.147813,22.0927445 153.415625,22.3446951 153.415625,22.690999 L153.415625,25.4925394 C153.415625,25.8073922 153.147813,26.0907939 152.779208,26.0907939 L150.299401,26.0907939 L150.299401,30.0259411 C150.299401,30.7185489 150.802276,30.7814511 151.204357,30.7814511 C151.673392,30.7814511 152.175903,30.6238538 152.511032,30.5609516 C152.846161,30.4980494 153.147813,30.6238538 153.248242,30.9701577 L153.985453,33.5833333 C154.052406,33.866735 153.885023,34.2126971 153.549894,34.3073922 C153.549894,34.3073922 151.170517,35 149.495237,35 C146.948841,35 145.474421,33.4886382 145.474421,30.6238538 L145.474421,26.0907939 Z" id="Fill-24" fill="#FFFFFF"></path>
                <path d="M163.382898,27.1332609 C163.317468,26.266677 162.498878,25.5666046 161.647574,25.5666046 C160.763198,25.5666046 160.010039,26.266677 159.879178,27.1332609 L163.382898,27.1332609 Z M161.778434,22 C165.118579,22 168,24.5997518 168,28.2666253 C168,28.4997414 167.967285,28.9333954 167.93457,29.1665115 C167.901855,29.4998966 167.607063,29.7333747 167.312627,29.7333747 L159.453526,29.7333747 C159.551671,30.6332609 160.272116,31.9334988 161.975081,31.9334988 C162.79367,31.9334988 163.743121,31.5331472 164.266918,31.1331575 C164.56171,30.9000414 164.889217,30.9000414 165.085864,31.1331575 L166.723043,33.1334678 C166.919334,33.3998862 166.98512,33.7998759 166.690328,34.0999586 C165.544231,35.2666253 163.907052,36 161.843865,36 C157.947207,36 155,32.833385 155,29 C155,25.2332196 157.914492,22 161.778434,22 L161.778434,22 Z" id="Fill-26" fill="#FFFFFF"></path>
                <path d="M170,13.6244086 C170,13.2957913 170.304131,13 170.642013,13 L174.357987,13 C174.695869,13 175,13.2957913 175,13.6244086 L175,35.3755914 C175,35.7042087 174.695869,36 174.357987,36 L170.642013,36 C170.304131,36 170,35.7042087 170,35.3755914 L170,13.6244086 Z" id="Fill-28" fill="#FFFFFF"></path>
                <path d="M185.382898,27.1332609 C185.317468,26.266677 184.498878,25.5666046 183.647574,25.5666046 C182.763198,25.5666046 182.010039,26.266677 181.879178,27.1332609 L185.382898,27.1332609 Z M183.778434,22 C187.118579,22 190,24.5997518 190,28.2666253 C190,28.4997414 189.967285,28.9333954 189.93457,29.1665115 C189.901855,29.4998966 189.607063,29.7333747 189.312271,29.7333747 L181.453526,29.7333747 C181.551671,30.6332609 182.272116,31.9334988 183.975081,31.9334988 C184.79367,31.9334988 185.743121,31.5331472 186.266918,31.1331575 C186.56171,30.9000414 186.889217,30.9000414 187.085864,31.1331575 L188.723043,33.1334678 C188.919334,33.3998862 188.98512,33.7998759 188.690328,34.0999586 C187.544231,35.2666253 185.907052,36 183.843865,36 C179.947207,36 177,32.833385 177,29 C177,25.2332196 179.914492,22 183.778434,22 L183.778434,22 Z" id="Fill-30" fill="#FFFFFF"></path>
                <path d="M193,22.9193484 C193,22.5705469 193.275712,22.3167792 193.582023,22.3167792 L195.021448,22.3167792 C195.358356,22.3167792 195.480747,22.5071911 195.57254,22.6972586 L196.123965,24.0924646 C196.736586,23.1731161 197.869701,22 199.462115,22 C201.146655,22 202.340965,22.6339028 201.912264,23.3631837 L200.411643,25.8998278 C200.289252,26.1219176 200.074735,26.3119852 199.737827,26.1852735 C199.584838,26.1219176 199.278528,26.0265395 199.002816,26.0265395 C198.084218,26.0265395 197.379471,26.7561647 197.379471,27.8339028 L197.379471,34.3974308 C197.379471,34.7779102 197.195885,35 196.705988,35 L193.582023,35 C193.275712,35 193,34.7145544 193,34.3974308 L193,22.9193484 Z" id="Fill-32" fill="#FFFFFF"></path>
                <path d="M203.540551,22.8731788 C203.540551,22.5221237 203.839102,22.2667164 204.170786,22.2667164 L207.818586,22.2667164 C208.15027,22.2667164 208.448821,22.5221237 208.448821,22.8731788 L208.448821,34.3938842 C208.448821,34.7130567 208.15027,35 207.818586,35 L204.170786,35 C203.839102,35 203.540551,34.7130567 203.540551,34.3938842 L203.540551,22.8731788 Z M202.744654,18.3735747 L202.048154,17.0331196 C201.915624,16.7780589 202.081286,16.5545342 202.247308,16.4266573 L207.884851,13.1080953 C208.084005,12.9802184 208.581351,12.9164532 208.747373,13.203743 L209.874593,15.0865487 C210.140012,15.5651342 209.941218,15.8843066 209.675799,16.0437196 L203.639948,18.6608646 C203.208867,18.9162719 202.910316,18.6927472 202.744654,18.3735747 L202.744654,18.3735747 Z" id="Fill-34" fill="#FFFFFF"></path>
                <path d="M216.375821,32.7334781 C217.121572,32.7334781 217.743144,32.066708 217.743144,31.2667287 C217.711761,30.5000517 217.121572,29.8669459 216.375821,29.8669459 C215.630069,29.8669459 215.039542,30.5000517 215.039542,31.2667287 C215.039542,32.066708 215.630069,32.7334781 216.375821,32.7334781 M215.567642,27.1332609 C216.966348,27.1332609 217.960458,27.6668218 217.960458,27.6668218 C217.960458,26.3665839 217.774189,25.6998138 216.282686,25.6998138 C215.443463,25.6998138 213.983005,25.933292 213.175164,26.2000724 C212.709154,26.3665839 212.491503,25.9998966 212.429413,25.5 L212.149672,23.4001448 C212.056537,22.8332816 212.336278,22.5998035 212.615682,22.4998966 C212.895423,22.3999897 215.070587,22 216.748696,22 C220.601632,22 222,23.7331679 222,27.6668218 L222,35.0335092 C222,35.3668942 221.720596,35.6669769 221.40981,35.6669769 L220.042487,35.6669769 C219.855881,35.6669769 219.638567,35.6000103 219.483005,35.233323 L219.04804,34.3334368 C218.333333,35.0335092 217.245751,36 215.288239,36 C212.833333,36 211,34.2335298 211,31.6001138 C211,29.0333023 212.740199,27.1332609 215.567642,27.1332609" id="Fill-36" fill="#FFFFFF"></path>
            </g>
        </g>
    </g>
</svg>